Coordinates
version=1
nRows=34
nColumns=38
inDegrees=no

Units are S.I. units (second, meters, Newtons, ...)
If the header above contains a line with 'inDegrees', this indicates whether rotational values are in degrees (yes) or radians (no).

endheader
time	pelvis_tilt	pelvis_list	pelvis_rotation	pelvis_tx	pelvis_ty	pelvis_tz	hip_flexion_r	hip_adduction_r	hip_rotation_r	knee_angle_r	ankle_angle_r	subtalar_angle_r	mtp_angle_r	hip_flexion_l	hip_adduction_l	hip_rotation_l	knee_angle_l	ankle_angle_l	subtalar_angle_l	mtp_angle_l	lumbar_extension	lumbar_bending	lumbar_rotation	arm_flex_r	arm_add_r	arm_rot_r	elbow_flex_r	pro_sup_r	wrist_flex_r	wrist_dev_r	arm_flex_l	arm_add_l	arm_rot_l	elbow_flex_l	pro_sup_l	wrist_flex_l	wrist_dev_l
2.34	0.0620244	1.48454	-1.46832	0.86768	-0.551093	1.06047	0.269213	0.0142473	0.220775	0.246388	-0.296562	0	0	-0.227164	-0.0145577	-0.364897	0.379783	-0.133971	0	0	-0.481428	0.0384198	0.123562	0.152013	-0.645646	0.778333	0.872082	0.78201	0	0	0.181045	-0.309245	0.573495	0.702837	0.910573	0	0
2.35	0.0724659	1.48245	-1.47415	0.870562	-0.560378	1.05971	0.254863	0.0127613	0.202861	0.189472	-0.308558	0	0	-0.238611	-0.0140198	-0.361202	0.379518	-0.133162	0	0	-0.482551	0.0409114	0.118559	0.149043	-0.64763	0.776292	0.876221	0.7845	0	0	0.177756	-0.309023	0.568387	0.704279	0.915008	0	0
2.36	0.0813793	1.47989	-1.47701	0.87354	-0.569998	1.05896	0.240102	0.0117117	0.181811	0.138422	-0.316479	0	0	-0.251126	-0.0141979	-0.356644	0.378353	-0.134147	0	0	-0.483574	0.0440764	0.112617	0.144513	-0.649541	0.772755	0.881258	0.786206	0	0	0.174	-0.309798	0.564775	0.706793	0.917106	0	0
2.37	0.0885067	1.47748	-1.47813	0.876438	-0.579746	1.0581	0.227172	0.0109026	0.161901	0.0952588	-0.324652	0	0	-0.263565	-0.01479	-0.352319	0.377268	-0.13527	0	0	-0.483939	0.0473155	0.106859	0.139403	-0.651381	0.76901	0.886575	0.787668	0	0	0.170024	-0.31106	0.562187	0.709744	0.917845	0	0
2.38	0.100304	1.47445	-1.48616	0.8789	-0.589335	1.05714	0.216602	0.0106462	0.148207	0.063672	-0.328934	0	0	-0.276848	-0.0147159	-0.350053	0.376052	-0.136214	0	0	-0.485074	0.0490832	0.103071	0.134374	-0.654033	0.765353	0.893493	0.788451	0	0	0.166469	-0.313295	0.561065	0.714155	0.917429	0	0
2.39	0.112525	1.47173	-1.49617	0.88107	-0.59892	1.05604	0.208969	0.0105475	0.140273	0.0417535	-0.329409	0	0	-0.289952	-0.0143071	-0.349394	0.374976	-0.137185	0	0	-0.486041	0.05012	0.100834	0.128904	-0.6572	0.761186	0.90142	0.78842	0	0	0.163072	-0.315997	0.560771	0.719351	0.915891	0	0
2.4	0.152804	1.48307	-1.53839	0.882515	-0.60826	1.05308	0.224174	0.00747785	0.150209	0.0408018	-0.320895	0	0	-0.285343	-0.00918425	-0.347504	0.379336	-0.134895	0	0	-0.473231	0.0455305	0.100564	0.12349	-0.657107	0.757716	0.905013	0.789222	0	0	0.159049	-0.318416	0.559605	0.721897	0.916337	0	0
2.41	0.177192	1.48789	-1.56087	0.884483	-0.618197	1.05096	0.23003	0.00619965	0.151402	0.0428434	-0.313264	0	0	-0.289345	-0.00776924	-0.345986	0.381398	-0.133956	0	0	-0.465208	0.044751	0.097889	0.117777	-0.65669	0.754931	0.907594	0.790003	0	0	0.155111	-0.320645	0.559588	0.723061	0.918796	0	0
2.42	0.200547	1.49181	-1.58268	0.886377	-0.628302	1.04887	0.236311	0.00520151	0.155398	0.0525128	-0.2993	0	0	-0.294851	-0.00665661	-0.345074	0.382848	-0.132554	0	0	-0.457687	0.0441461	0.0954178	0.111779	-0.656209	0.751937	0.910377	0.79136	0	0	0.150626	-0.322702	0.559085	0.724043	0.922606	0	0
2.43	0.502248	1.50059	-1.88256	0.887166	-0.641191	1.04123	0.256801	-0.00920472	0.160603	0.13427	-0.18239	0	0	-0.293138	0.00888531	-0.356667	0.394766	-0.11931	0	0	-0.422179	0.0202525	0.0897682	0.0867079	-0.647874	0.743853	0.914452	0.790973	0	0	0.135734	-0.34226	0.576674	0.739644	0.910726	0	0
2.44	0.503786	1.50175	-1.88233	0.888867	-0.651513	1.03956	0.260435	-0.00788704	0.166329	0.150528	-0.176102	0	0	-0.301567	0.00655773	-0.357282	0.397155	-0.119422	0	0	-0.417977	0.0217368	0.0881922	0.0811176	-0.647782	0.741173	0.917683	0.791317	0	0	0.13186	-0.343892	0.577278	0.740497	0.906151	0	0
2.45	0.258159	1.50517	-1.63806	0.890759	-0.659297	1.04215	0.267085	0.00755344	0.187359	0.13299	-0.217087	0	0	-0.306768	-0.00885252	-0.348117	0.396444	-0.124742	0	0	-0.432467	0.0413015	0.0919471	0.0935534	-0.650851	0.7434	0.914307	0.793281	0	0	0.138939	-0.332289	0.569542	0.727682	0.907386	0	0
2.46	0.243897	1.50444	-1.62235	0.892317	-0.66992	1.04066	0.268718	0.0106573	0.192735	0.155872	-0.231836	0	0	-0.317411	-0.0121202	-0.34874	0.398526	-0.128069	0	0	-0.430234	0.0439066	0.0908694	0.0868141	-0.651917	0.739015	0.920156	0.795147	0	0	0.134155	-0.331306	0.562878	0.726535	0.91141	0	0
2.47	0.243607	1.50529	-1.62071	0.893637	-0.680764	1.0389	0.272893	0.0134315	0.200218	0.184677	-0.23036	0	0	-0.325128	-0.0152562	-0.349064	0.403291	-0.13028	0	0	-0.426147	0.0445728	0.0897355	0.0799856	-0.650981	0.735137	0.923931	0.797546	0	0	0.129022	-0.332324	0.558211	0.726729	0.916535	0	0
2.48	0.238296	1.50597	-1.61384	0.8949	-0.691794	1.03723	0.275392	0.016754	0.206966	0.209485	-0.225992	0	0	-0.332284	-0.019305	-0.348724	0.409449	-0.132577	0	0	-0.422081	0.0453963	0.0885267	0.073559	-0.649094	0.7319	0.926007	0.799575	0	0	0.124505	-0.333634	0.555257	0.725878	0.920836	0	0
2.49	0.214694	1.50621	-1.58874	0.89607	-0.702941	1.03581	0.275605	0.0217265	0.213651	0.228248	-0.225473	0	0	-0.339021	-0.0250169	-0.347957	0.416868	-0.135814	0	0	-0.419113	0.0473156	0.0878981	0.0677315	-0.646676	0.728903	0.926852	0.801169	0	0	0.120777	-0.334334	0.552694	0.723543	0.925073	0	0
2.5	0.177564	1.50565	-1.55005	0.897208	-0.714229	1.03467	0.273093	0.0277006	0.220383	0.239849	-0.231895	0	0	-0.345751	-0.0319147	-0.346171	0.425087	-0.139702	0	0	-0.417512	0.049959	0.0878107	0.062564	-0.644106	0.726985	0.926777	0.802521	0	0	0.117083	-0.333963	0.549339	0.720419	0.925992	0	0
2.51	0.374827	1.5051	-1.74241	0.898399	-0.728229	1.02968	0.26372	0.0155515	0.214831	0.274013	-0.192582	0	0	-0.353856	-0.0280506	-0.353494	0.439241	-0.142298	0	0	-0.396917	0.0358267	0.081897	0.0410825	-0.637274	0.721489	0.930539	0.802418	0	0	0.103235	-0.347803	0.560232	0.729976	0.91673	0	0
2.52	0.0769647	1.50411	-1.44712	0.899175	-0.737251	1.0329	0.267877	0.0420108	0.235561	0.265068	-0.240224	0	0	-0.355565	-0.0494463	-0.34313	0.448623	-0.151701	0	0	-0.413482	0.0561935	0.0888494	0.0544063	-0.636597	0.725924	0.921448	0.80375	0	0	0.111783	-0.335574	0.553565	0.712624	0.917259	0	0
2.53	0.245531	1.5026	-1.61076	0.900532	-0.751546	1.02876	0.250961	0.0295913	0.221121	0.29304	-0.21656	0	0	-0.36497	-0.0474645	-0.34964	0.463691	-0.160945	0	0	-0.396177	0.0443946	0.0837794	0.0334707	-0.63143	0.721032	0.92616	0.801872	0	0	0.0977505	-0.345528	0.557085	0.719369	0.915768	0	0
2.54	-0.0460321	1.49865	-1.32349	0.900932	-0.760764	1.03245	0.256855	0.0578997	0.241063	0.287389	-0.265705	0	0	-0.365159	-0.0703135	-0.340653	0.47678	-0.173046	0	0	-0.413699	0.0648618	0.0930098	0.0479393	-0.630742	0.72752	0.916042	0.803606	0	0	0.106844	-0.332347	0.548875	0.700817	0.917608	0	0
2.55	-0.107839	1.49451	-1.26245	0.901687	-0.772614	1.03279	0.25022	0.0665604	0.242055	0.298522	-0.291206	0	0	-0.368969	-0.0820165	-0.340188	0.494197	-0.186533	0	0	-0.41533	0.0697076	0.0962581	0.0450256	-0.628079	0.727636	0.913641	0.804084	0	0	0.104208	-0.328561	0.541295	0.69338	0.92316	0	0
2.56	0.0331603	1.49468	-1.40091	0.902734	-0.786876	1.02971	0.233115	0.052516	0.227213	0.330818	-0.254406	0	0	-0.373761	-0.0817937	-0.346644	0.517367	-0.203896	0	0	-0.39993	0.0573554	0.0925955	0.0282127	-0.622421	0.726603	0.91597	0.799792	0	0	0.0906555	-0.337719	0.542235	0.699754	0.926733	0	0
2.57	-0.198396	1.48481	-1.17509	0.90274	-0.796169	1.03425	0.239762	0.0820068	0.243546	0.333581	-0.312553	0	0	-0.371023	-0.107175	-0.340809	0.541089	-0.223364	0	0	-0.419919	0.0764483	0.103479	0.0439604	-0.621923	0.734718	0.906078	0.799632	0	0	0.100633	-0.324228	0.531988	0.680821	0.932013	0	0
2.58	-0.220842	1.47801	-1.15398	0.90336	-0.807818	1.03566	0.231588	0.0883791	0.238515	0.347331	-0.330298	0	0	-0.370625	-0.120311	-0.340224	0.569603	-0.242923	0	0	-0.425246	0.0793522	0.107058	0.0437732	-0.619258	0.737596	0.902819	0.798431	0	0	0.0999744	-0.320925	0.525698	0.673431	0.939274	0	0
2.59	-0.217403	1.46792	-1.15794	0.904173	-0.819579	1.03766	0.215931	0.0931892	0.225637	0.355117	-0.339814	0	0	-0.372221	-0.134528	-0.342429	0.600963	-0.27599	0	0	-0.433996	0.0818193	0.109343	0.0450464	-0.617465	0.743797	0.900034	0.794105	0	0	0.0988533	-0.317553	0.517188	0.666413	0.950415	0	0
2.6	-0.210281	1.45913	-1.16638	0.904735	-0.831054	1.03983	0.202875	0.0973357	0.216884	0.367848	-0.339397	0	0	-0.369709	-0.147763	-0.341518	0.635373	-0.306095	0	0	-0.442868	0.0825138	0.111995	0.0480601	-0.61486	0.751285	0.895819	0.788749	0	0	0.0991496	-0.315117	0.511233	0.659355	0.957178	0	0
2.61	-0.192479	1.44908	-1.18441	0.905299	-0.842529	1.04226	0.18222	0.100274	0.2025	0.370098	-0.339403	0	0	-0.366689	-0.161225	-0.33868	0.671834	-0.337671	0	0	-0.452661	0.0824275	0.113836	0.0509703	-0.61213	0.759186	0.891822	0.78324	0	0	0.0999005	-0.314295	0.508127	0.653303	0.961993	0	0
2.62	-0.164526	1.43544	-1.21116	0.90605	-0.853861	1.04528	0.151071	0.102475	0.182262	0.360147	-0.34229	0	0	-0.365923	-0.174782	-0.333632	0.708268	-0.374925	0	0	-0.466424	0.0827241	0.114465	0.0544693	-0.611209	0.768339	0.890495	0.77444	0	0	0.100668	-0.315083	0.506059	0.650514	0.965117	0	0
2.63	-0.13881	1.42236	-1.23563	0.906706	-0.865003	1.04834	0.118755	0.10351	0.16102	0.345656	-0.346654	0	0	-0.362103	-0.187686	-0.326705	0.746941	-0.408319	0	0	-0.479509	0.0822775	0.115459	0.0568489	-0.609925	0.775354	0.889411	0.768363	0	0	0.102085	-0.317072	0.506768	0.649295	0.964709	0	0
2.64	-0.114946	1.41157	-1.25883	0.907243	-0.875882	1.0512	0.0888054	0.103362	0.139062	0.331033	-0.351097	0	0	-0.353577	-0.198746	-0.318203	0.787446	-0.438512	0	0	-0.490422	0.080427	0.116929	0.0593299	-0.608306	0.782353	0.887586	0.764491	0	0	0.103855	-0.319702	0.509045	0.649051	0.964242	0	0
2.65	-0.00781082	1.41211	-1.3632	0.908099	-0.888729	1.05017	0.0535029	0.0790001	0.102096	0.351243	-0.270526	0	0	-0.337061	-0.19393	-0.310526	0.83221	-0.459111	0	0	-0.478736	0.0619647	0.112081	0.0483856	-0.602794	0.786285	0.887475	0.756182	0	0	0.0974314	-0.333737	0.526444	0.658524	0.95334	0	0
2.66	-0.0692327	1.39383	-1.30282	0.908747	-0.897075	1.05664	0.0340834	0.100707	0.0981374	0.306372	-0.355981	0	0	-0.328395	-0.215258	-0.297182	0.867477	-0.489974	0	0	-0.507804	0.0755758	0.119137	0.0628872	-0.605737	0.793139	0.884761	0.751865	0	0	0.108693	-0.325806	0.520371	0.649351	0.959713	0	0
2.67	-0.0486784	1.38674	-1.32258	0.909673	-0.907311	1.05912	0.0102709	0.0988976	0.0787786	0.297476	-0.35841	0	0	-0.31263	-0.220501	-0.284586	0.905665	-0.507987	0	0	-0.51521	0.0728259	0.119626	0.0644027	-0.604803	0.79672	0.884392	0.746815	0	0	0.109812	-0.327022	0.519652	0.649775	0.962388	0	0
